<mxfile host="app.diagrams.net" modified="2023-03-15T07:19:34.775Z" agent="5.0 (Windows NT 10.0; Win64; x64) AppleWebKit/537.36 (KHTML, like Gecko) Chrome/111.0.0.0 Safari/537.36" etag="GNwWFZWEaxw_T1B53zSL" version="21.0.6" type="github">
  <diagram id="C5RBs43oDa-KdzZeNtuy" name="Page-1">
    <mxGraphModel dx="1050" dy="581" grid="1" gridSize="10" guides="1" tooltips="1" connect="1" arrows="1" fold="1" page="1" pageScale="1" pageWidth="827" pageHeight="1169" math="0" shadow="0">
      <root>
        <mxCell id="WIyWlLk6GJQsqaUBKTNV-0" />
        <mxCell id="WIyWlLk6GJQsqaUBKTNV-1" parent="WIyWlLk6GJQsqaUBKTNV-0" />
        <mxCell id="SdjnVzLo49J4q8ggk5j5-1" value="" style="edgeStyle=orthogonalEdgeStyle;rounded=0;orthogonalLoop=1;jettySize=auto;html=1;" edge="1" parent="WIyWlLk6GJQsqaUBKTNV-1" source="j67WnfkW41FYY-DcMpxh-0" target="SdjnVzLo49J4q8ggk5j5-0">
          <mxGeometry relative="1" as="geometry" />
        </mxCell>
        <mxCell id="j67WnfkW41FYY-DcMpxh-0" value="Start" style="ellipse;whiteSpace=wrap;html=1;" parent="WIyWlLk6GJQsqaUBKTNV-1" vertex="1">
          <mxGeometry x="70" y="30" width="120" height="80" as="geometry" />
        </mxCell>
        <mxCell id="j67WnfkW41FYY-DcMpxh-4" value="" style="edgeStyle=orthogonalEdgeStyle;rounded=0;orthogonalLoop=1;jettySize=auto;html=1;" parent="WIyWlLk6GJQsqaUBKTNV-1" target="j67WnfkW41FYY-DcMpxh-3" edge="1">
          <mxGeometry relative="1" as="geometry">
            <mxPoint x="130" y="460" as="sourcePoint" />
          </mxGeometry>
        </mxCell>
        <mxCell id="j67WnfkW41FYY-DcMpxh-37" value="" style="edgeStyle=orthogonalEdgeStyle;rounded=0;orthogonalLoop=1;jettySize=auto;html=1;fontColor=#005C0F;" parent="WIyWlLk6GJQsqaUBKTNV-1" source="j67WnfkW41FYY-DcMpxh-3" target="j67WnfkW41FYY-DcMpxh-5" edge="1">
          <mxGeometry relative="1" as="geometry" />
        </mxCell>
        <mxCell id="j67WnfkW41FYY-DcMpxh-3" value="edit payment sources&lt;br&gt;(page)" style="whiteSpace=wrap;html=1;rounded=0;" parent="WIyWlLk6GJQsqaUBKTNV-1" vertex="1">
          <mxGeometry x="70" y="555" width="120" height="60" as="geometry" />
        </mxCell>
        <mxCell id="j67WnfkW41FYY-DcMpxh-5" value="Edit Payment Sources&lt;br&gt;(link)" style="whiteSpace=wrap;html=1;rounded=0;" parent="WIyWlLk6GJQsqaUBKTNV-1" vertex="1">
          <mxGeometry x="70" y="730" width="120" height="60" as="geometry" />
        </mxCell>
        <mxCell id="j67WnfkW41FYY-DcMpxh-11" value="/digitalexp-eip-payment-source-module-l9.min.js" style="rounded=1;whiteSpace=wrap;html=1;labelBackgroundColor=none;fillColor=#dae8fc;strokeColor=#6c8ebf;" parent="WIyWlLk6GJQsqaUBKTNV-1" vertex="1">
          <mxGeometry x="140" y="470" width="300" height="30" as="geometry" />
        </mxCell>
        <mxCell id="j67WnfkW41FYY-DcMpxh-12" value="AutopayMake.LayoutView.js" style="rounded=1;whiteSpace=wrap;html=1;labelBackgroundColor=none;fillColor=#dae8fc;strokeColor=#6c8ebf;" parent="WIyWlLk6GJQsqaUBKTNV-1" vertex="1">
          <mxGeometry x="250" y="570" width="180" height="30" as="geometry" />
        </mxCell>
        <mxCell id="j67WnfkW41FYY-DcMpxh-16" value="rp-server/commerce/v1/customer/847188474/paymeans?salesChannel=WR&amp;amp;filterExpierd=false" style="rounded=1;whiteSpace=wrap;html=1;labelBackgroundColor=none;fillColor=#dae8fc;strokeColor=#6c8ebf;" parent="WIyWlLk6GJQsqaUBKTNV-1" vertex="1">
          <mxGeometry x="210" y="745" width="560" height="30" as="geometry" />
        </mxCell>
        <mxCell id="j67WnfkW41FYY-DcMpxh-17" value="Api call for data" style="rounded=0;whiteSpace=wrap;html=1;labelBackgroundColor=none;fillColor=#ffe6cc;strokeColor=#d79b00;" parent="WIyWlLk6GJQsqaUBKTNV-1" vertex="1">
          <mxGeometry x="430" y="700" width="90" height="40" as="geometry" />
        </mxCell>
        <mxCell id="j67WnfkW41FYY-DcMpxh-18" value="on click of this link open new view" style="ellipse;shape=cloud;whiteSpace=wrap;html=1;rounded=0;labelBackgroundColor=none;fillColor=#d5e8d4;strokeColor=#82b366;" parent="WIyWlLk6GJQsqaUBKTNV-1" vertex="1">
          <mxGeometry x="70" y="800" width="120" height="80" as="geometry" />
        </mxCell>
        <mxCell id="j67WnfkW41FYY-DcMpxh-27" style="edgeStyle=orthogonalEdgeStyle;rounded=0;orthogonalLoop=1;jettySize=auto;html=1;fontColor=#050000;fillColor=#d5e8d4;strokeColor=#82b366;" parent="WIyWlLk6GJQsqaUBKTNV-1" source="j67WnfkW41FYY-DcMpxh-19" target="j67WnfkW41FYY-DcMpxh-26" edge="1">
          <mxGeometry relative="1" as="geometry">
            <Array as="points">
              <mxPoint x="130" y="1240" />
            </Array>
          </mxGeometry>
        </mxCell>
        <mxCell id="j67WnfkW41FYY-DcMpxh-28" style="edgeStyle=orthogonalEdgeStyle;rounded=0;orthogonalLoop=1;jettySize=auto;html=1;entryX=0;entryY=0.5;entryDx=0;entryDy=0;fontColor=#050000;fillColor=#d5e8d4;strokeColor=#82b366;" parent="WIyWlLk6GJQsqaUBKTNV-1" source="j67WnfkW41FYY-DcMpxh-19" target="j67WnfkW41FYY-DcMpxh-23" edge="1">
          <mxGeometry relative="1" as="geometry" />
        </mxCell>
        <mxCell id="j67WnfkW41FYY-DcMpxh-29" style="edgeStyle=orthogonalEdgeStyle;rounded=0;orthogonalLoop=1;jettySize=auto;html=1;entryX=0;entryY=0.5;entryDx=0;entryDy=0;fontColor=#050000;fillColor=#d5e8d4;strokeColor=#82b366;" parent="WIyWlLk6GJQsqaUBKTNV-1" source="j67WnfkW41FYY-DcMpxh-19" target="j67WnfkW41FYY-DcMpxh-25" edge="1">
          <mxGeometry relative="1" as="geometry" />
        </mxCell>
        <mxCell id="j67WnfkW41FYY-DcMpxh-19" value="Edit Payment Sources&lt;br&gt;(page)" style="whiteSpace=wrap;html=1;rounded=0;fillColor=#d5e8d4;strokeColor=#82b366;" parent="WIyWlLk6GJQsqaUBKTNV-1" vertex="1">
          <mxGeometry x="70" y="900" width="120" height="60" as="geometry" />
        </mxCell>
        <mxCell id="j67WnfkW41FYY-DcMpxh-20" value="[&lt;br&gt;&amp;nbsp; &amp;nbsp; {&lt;br&gt;&amp;nbsp; &amp;nbsp; &amp;nbsp; &amp;nbsp; &quot;paymeansId&quot;: &quot;16204569&quot;,&lt;br&gt;&lt;b&gt;&lt;font color=&quot;#005c0f&quot;&gt;&amp;nbsp; &amp;nbsp; &amp;nbsp; &amp;nbsp; &quot;favoriteIndicator&quot;: false,&lt;br&gt;&lt;/font&gt;&lt;/b&gt;&amp;nbsp; &amp;nbsp; &amp;nbsp; &amp;nbsp; &quot;cardInfo&quot;: {&lt;br&gt;&amp;nbsp; &amp;nbsp; &amp;nbsp; &amp;nbsp; &amp;nbsp; &amp;nbsp; &quot;expiryMonth&quot;: 2,&lt;br&gt;&amp;nbsp; &amp;nbsp; &amp;nbsp; &amp;nbsp; &amp;nbsp; &amp;nbsp; &quot;expiryYear&quot;: 26,&lt;br&gt;&amp;nbsp; &amp;nbsp; &amp;nbsp; &amp;nbsp; &amp;nbsp; &amp;nbsp; &quot;cardHolderName&quot;: &quot;Test&quot;,&lt;br&gt;&amp;nbsp; &amp;nbsp; &amp;nbsp; &amp;nbsp; &amp;nbsp; &amp;nbsp; &quot;cardType&quot;: &quot;VS&quot;,&lt;br&gt;&amp;nbsp; &amp;nbsp; &amp;nbsp; &amp;nbsp; &amp;nbsp; &amp;nbsp; &quot;lastFourDigits&quot;: &quot;1111&quot;,&lt;br&gt;&amp;nbsp; &amp;nbsp; &amp;nbsp; &amp;nbsp; &amp;nbsp; &amp;nbsp; &quot;cyberSourceId&quot;: &quot;9504969000007151&quot;&lt;br&gt;&amp;nbsp; &amp;nbsp; &amp;nbsp; &amp;nbsp; }&lt;br&gt;&amp;nbsp; &amp;nbsp; },&lt;br&gt;&amp;nbsp; &amp;nbsp; {&lt;br&gt;&amp;nbsp; &amp;nbsp; &amp;nbsp; &amp;nbsp; &quot;paymeansId&quot;: &quot;15756887&quot;,&lt;br&gt;&amp;nbsp; &amp;nbsp; &amp;nbsp; &amp;nbsp; &quot;favoriteIndicator&quot;: false,&lt;br&gt;&amp;nbsp; &amp;nbsp; &amp;nbsp; &amp;nbsp; &quot;bankAccountInfo&quot;: {&lt;br&gt;&amp;nbsp; &amp;nbsp; &amp;nbsp; &amp;nbsp; &amp;nbsp; &amp;nbsp; &quot;bankAccountNumber&quot;: &quot;****1081&quot;,&lt;br&gt;&amp;nbsp; &amp;nbsp; &amp;nbsp; &amp;nbsp; &amp;nbsp; &amp;nbsp; &quot;bankAccountName&quot;: &quot;UMB Bank National Association&quot;,&lt;br&gt;&amp;nbsp; &amp;nbsp; &amp;nbsp; &amp;nbsp; &amp;nbsp; &amp;nbsp; &quot;accountOwnerName&quot;: &quot;Donnell J Scott &quot;,&lt;br&gt;&amp;nbsp; &amp;nbsp; &amp;nbsp; &amp;nbsp; &amp;nbsp; &amp;nbsp; &quot;routingNumber&quot;: &quot;101100634&quot;,&lt;br&gt;&amp;nbsp; &amp;nbsp; &amp;nbsp; &amp;nbsp; &amp;nbsp; &amp;nbsp; &quot;bankAccountType&quot;: &quot;Checking&quot;&lt;br&gt;&amp;nbsp; &amp;nbsp; &amp;nbsp; &amp;nbsp; }&lt;br&gt;&amp;nbsp; &amp;nbsp; }&lt;br&gt;]" style="text;whiteSpace=wrap;html=1;fillColor=#fff2cc;strokeColor=#d6b656;" parent="WIyWlLk6GJQsqaUBKTNV-1" vertex="1">
          <mxGeometry x="500" y="900" width="370" height="380" as="geometry" />
        </mxCell>
        <mxCell id="j67WnfkW41FYY-DcMpxh-22" value="digitalexp-common-components-l9\src\ui-components\AutopayList\AutopayList.js" style="rounded=1;whiteSpace=wrap;html=1;labelBackgroundColor=none;fillColor=#dae8fc;strokeColor=#6c8ebf;" parent="WIyWlLk6GJQsqaUBKTNV-1" vertex="1">
          <mxGeometry x="224" y="825" width="536" height="30" as="geometry" />
        </mxCell>
        <mxCell id="j67WnfkW41FYY-DcMpxh-31" value="" style="edgeStyle=orthogonalEdgeStyle;rounded=0;orthogonalLoop=1;jettySize=auto;html=1;fontColor=#050000;fillColor=#d5e8d4;strokeColor=#82b366;" parent="WIyWlLk6GJQsqaUBKTNV-1" source="j67WnfkW41FYY-DcMpxh-23" target="j67WnfkW41FYY-DcMpxh-30" edge="1">
          <mxGeometry relative="1" as="geometry" />
        </mxCell>
        <mxCell id="j67WnfkW41FYY-DcMpxh-23" value="Back Link" style="whiteSpace=wrap;html=1;rounded=0;fillColor=#d5e8d4;strokeColor=#82b366;" parent="WIyWlLk6GJQsqaUBKTNV-1" vertex="1">
          <mxGeometry x="150" y="1000" width="120" height="60" as="geometry" />
        </mxCell>
        <mxCell id="j67WnfkW41FYY-DcMpxh-33" value="" style="edgeStyle=orthogonalEdgeStyle;rounded=0;orthogonalLoop=1;jettySize=auto;html=1;fontColor=#050000;fillColor=#d5e8d4;strokeColor=#82b366;" parent="WIyWlLk6GJQsqaUBKTNV-1" source="j67WnfkW41FYY-DcMpxh-25" target="j67WnfkW41FYY-DcMpxh-32" edge="1">
          <mxGeometry relative="1" as="geometry" />
        </mxCell>
        <mxCell id="j67WnfkW41FYY-DcMpxh-25" value="Caret icon" style="whiteSpace=wrap;html=1;rounded=0;fillColor=#d5e8d4;strokeColor=#82b366;" parent="WIyWlLk6GJQsqaUBKTNV-1" vertex="1">
          <mxGeometry x="150" y="1110" width="120" height="60" as="geometry" />
        </mxCell>
        <mxCell id="j67WnfkW41FYY-DcMpxh-35" value="" style="edgeStyle=orthogonalEdgeStyle;rounded=0;orthogonalLoop=1;jettySize=auto;html=1;fontColor=#050000;fillColor=#d5e8d4;strokeColor=#82b366;" parent="WIyWlLk6GJQsqaUBKTNV-1" source="j67WnfkW41FYY-DcMpxh-26" target="j67WnfkW41FYY-DcMpxh-34" edge="1">
          <mxGeometry relative="1" as="geometry" />
        </mxCell>
        <mxCell id="j67WnfkW41FYY-DcMpxh-26" value="Done Button" style="whiteSpace=wrap;html=1;rounded=0;fillColor=#d5e8d4;strokeColor=#82b366;" parent="WIyWlLk6GJQsqaUBKTNV-1" vertex="1">
          <mxGeometry x="150" y="1210" width="120" height="60" as="geometry" />
        </mxCell>
        <mxCell id="j67WnfkW41FYY-DcMpxh-30" value="navigate back to Make Payment screen" style="whiteSpace=wrap;html=1;rounded=0;fillColor=#d5e8d4;strokeColor=#82b366;" parent="WIyWlLk6GJQsqaUBKTNV-1" vertex="1">
          <mxGeometry x="350" y="1000" width="120" height="60" as="geometry" />
        </mxCell>
        <mxCell id="j67WnfkW41FYY-DcMpxh-32" value="navigate to Payment Source" style="whiteSpace=wrap;html=1;rounded=0;fillColor=#d5e8d4;strokeColor=#82b366;" parent="WIyWlLk6GJQsqaUBKTNV-1" vertex="1">
          <mxGeometry x="350" y="1110" width="120" height="60" as="geometry" />
        </mxCell>
        <mxCell id="j67WnfkW41FYY-DcMpxh-34" value="navigate back to Make Payment screen" style="whiteSpace=wrap;html=1;rounded=0;fillColor=#d5e8d4;strokeColor=#82b366;" parent="WIyWlLk6GJQsqaUBKTNV-1" vertex="1">
          <mxGeometry x="350" y="1210" width="120" height="60" as="geometry" />
        </mxCell>
        <mxCell id="j67WnfkW41FYY-DcMpxh-47" value="&lt;font style=&quot;font-size: 13px;&quot;&gt;/eippaymentsource&lt;/font&gt;" style="text;whiteSpace=wrap;html=1;fontSize=23;fontColor=#005C0F;" parent="WIyWlLk6GJQsqaUBKTNV-1" vertex="1">
          <mxGeometry x="300" y="490" width="180" height="50" as="geometry" />
        </mxCell>
        <mxCell id="j67WnfkW41FYY-DcMpxh-53" value="Make a Payment" style="rounded=1;whiteSpace=wrap;html=1;labelBackgroundColor=none;strokeColor=default;fontSize=13;fontColor=#005C0F;fillColor=default;" parent="WIyWlLk6GJQsqaUBKTNV-1" vertex="1">
          <mxGeometry x="70" y="400" width="120" height="60" as="geometry" />
        </mxCell>
        <mxCell id="SdjnVzLo49J4q8ggk5j5-3" value="" style="edgeStyle=orthogonalEdgeStyle;rounded=0;orthogonalLoop=1;jettySize=auto;html=1;" edge="1" parent="WIyWlLk6GJQsqaUBKTNV-1" source="SdjnVzLo49J4q8ggk5j5-0" target="SdjnVzLo49J4q8ggk5j5-2">
          <mxGeometry relative="1" as="geometry" />
        </mxCell>
        <mxCell id="SdjnVzLo49J4q8ggk5j5-0" value="Device and Plans" style="whiteSpace=wrap;html=1;" vertex="1" parent="WIyWlLk6GJQsqaUBKTNV-1">
          <mxGeometry x="70" y="170" width="120" height="60" as="geometry" />
        </mxCell>
        <mxCell id="SdjnVzLo49J4q8ggk5j5-5" value="" style="edgeStyle=orthogonalEdgeStyle;rounded=0;orthogonalLoop=1;jettySize=auto;html=1;" edge="1" parent="WIyWlLk6GJQsqaUBKTNV-1" source="SdjnVzLo49J4q8ggk5j5-2" target="j67WnfkW41FYY-DcMpxh-53">
          <mxGeometry relative="1" as="geometry" />
        </mxCell>
        <mxCell id="SdjnVzLo49J4q8ggk5j5-2" value="Manage Installment" style="whiteSpace=wrap;html=1;" vertex="1" parent="WIyWlLk6GJQsqaUBKTNV-1">
          <mxGeometry x="70" y="290" width="120" height="60" as="geometry" />
        </mxCell>
      </root>
    </mxGraphModel>
  </diagram>
</mxfile>
